<?xml version="1.0" encoding="UTF-8"?>
<svg width="137px" height="33px" viewBox="0 0 137 33" version="1.1" xmlns="http://www.w3.org/2000/svg" xmlns:xlink="http://www.w3.org/1999/xlink">
    <title>Group 26</title>
    <g id="Page-1" stroke="none" stroke-width="1" fill="none" fill-rule="evenodd">
        <g id="Group-26" fill-rule="nonzero">
            <g id="Best-Games-New-Zeala" transform="translate(35.188, 0.364)" fill="#FFFFFF">
                <path d="M7.956,6.048 C8.748,5.544 9.324,4.536 9.324,3.402 C9.324,1.548 7.866,0.216 6.012,0.216 L0,0.216 L0,12.636 L6.408,12.636 C8.424,12.636 9.918,11.232 9.918,9.27 C9.918,7.794 9.108,6.498 7.956,6.048 Z M5.31,2.736 C5.958,2.736 6.462,3.222 6.462,3.906 C6.462,4.572 5.94,5.076 5.31,5.076 L2.7,5.076 L2.7,2.736 L5.31,2.736 Z M5.724,10.116 L2.7,10.116 L2.7,7.434 L5.724,7.434 C6.48,7.434 7.056,8.028 7.056,8.784 C7.056,9.54 6.48,10.116 5.724,10.116 Z" id="Shape"></path>
                <path d="M20.607912,8.082 C20.607912,5.292 18.537912,3.24 15.783912,3.24 C12.993912,3.24 10.887912,5.292 10.887912,7.992 C10.887912,10.764 13.083912,12.852 15.999912,12.852 C17.691912,12.852 19.167912,12.168 20.139912,11.07 L18.375912,9.54 C17.943912,10.08 17.115912,10.566 16.071912,10.566 C14.919912,10.566 14.037912,9.936 13.713912,8.91 L20.553912,8.91 C20.589912,8.676 20.607912,8.334 20.607912,8.082 Z M15.747912,5.508 C16.737912,5.508 17.529912,6.138 17.817912,7.164 L13.695912,7.164 C13.965912,6.156 14.757912,5.508 15.747912,5.508 Z" id="Shape"></path>
                <path d="M25.357824,12.852 C27.589824,12.852 29.353824,11.79 29.353824,9.774 C29.353824,7.632 27.409824,7.182 25.969824,6.876 C25.033824,6.678 24.331824,6.516 24.331824,5.994 C24.331824,5.526 24.907824,5.328 25.609824,5.328 C26.509824,5.328 27.265824,5.67 27.949824,6.138 L29.173824,4.446 C28.309824,3.816 27.139824,3.24 25.519824,3.24 C23.431824,3.24 21.703824,4.212 21.703824,6.192 C21.703824,8.352 23.629824,8.784 25.087824,9.108 C26.023824,9.324 26.725824,9.504 26.725824,10.026 C26.725824,10.512 26.131824,10.764 25.267824,10.764 C24.205824,10.764 23.341824,10.368 22.639824,9.774 L21.415824,11.466 C22.315824,12.204 23.611824,12.852 25.357824,12.852 Z" id="Path"></path>
                <path d="M36.425736,5.85 L36.425736,3.456 L34.067736,3.456 L34.067736,1.188 L31.439736,1.188 L31.439736,3.456 L30.053736,3.456 L30.053736,5.85 L31.439736,5.85 L31.439736,9.648 C31.439736,11.538 32.429736,12.852 34.661736,12.852 C35.363736,12.852 35.885736,12.726 36.425736,12.456 L36.425736,9.99 C36.083736,10.17 35.687736,10.314 35.219736,10.314 C34.445736,10.314 34.067736,9.918 34.067736,9.216 L34.067736,5.85 L36.425736,5.85 Z" id="Path"></path>
                <path d="M48.30156,5.526 L48.30156,8.01 L51.36156,8.01 C50.96556,9.306 49.70556,10.188 48.13956,10.188 C46.01556,10.188 44.39556,8.568 44.39556,6.426 C44.39556,4.284 46.01556,2.664 48.15756,2.664 C49.39956,2.664 50.47956,3.204 51.16356,4.05 L53.26956,2.376 C52.15356,0.918 50.26356,0 48.10356,0 C44.35956,0 41.53356,2.772 41.53356,6.426 C41.53356,10.08 44.32356,12.852 48.04956,12.852 C51.68556,12.852 54.34956,10.152 54.34956,6.48 L54.34956,5.526 L48.30156,5.526 Z" id="Path"></path>
                <path d="M62.645472,3.456 L62.645472,4.374 C61.943472,3.654 60.989472,3.24 59.873472,3.24 C57.353472,3.24 55.445472,5.31 55.445472,8.046 C55.445472,10.782 57.353472,12.852 59.873472,12.852 C60.989472,12.852 61.943472,12.438 62.645472,11.718 L62.645472,12.636 L65.273472,12.636 L65.273472,3.456 L62.645472,3.456 Z M60.395472,10.314 C59.117472,10.314 58.163472,9.342 58.163472,8.046 C58.163472,6.75 59.117472,5.778 60.395472,5.778 C61.691472,5.778 62.645472,6.75 62.645472,8.046 C62.645472,9.342 61.691472,10.314 60.395472,10.314 Z" id="Shape"></path>
                <path d="M78.465384,3.24 C77.187384,3.24 76.143384,3.726 75.405384,4.662 C74.829384,3.762 73.839384,3.24 72.597384,3.24 C71.535384,3.24 70.653384,3.618 69.987384,4.338 L69.987384,3.456 L67.359384,3.456 L67.359384,12.636 L69.987384,12.636 L69.987384,7.47 C69.987384,6.462 70.689384,5.778 71.697384,5.778 C72.669384,5.778 73.299384,6.444 73.299384,7.434 L73.299384,12.636 L75.927384,12.636 L75.927384,7.47 C75.927384,6.462 76.629384,5.778 77.637384,5.778 C78.609384,5.778 79.239384,6.444 79.239384,7.434 L79.239384,12.636 L81.867384,12.636 L81.867384,6.642 C81.867384,4.59 80.535384,3.24 78.465384,3.24 Z" id="Path"></path>
                <path d="M92.971296,8.082 C92.971296,5.292 90.901296,3.24 88.147296,3.24 C85.357296,3.24 83.251296,5.292 83.251296,7.992 C83.251296,10.764 85.447296,12.852 88.363296,12.852 C90.055296,12.852 91.531296,12.168 92.503296,11.07 L90.739296,9.54 C90.307296,10.08 89.479296,10.566 88.435296,10.566 C87.283296,10.566 86.401296,9.936 86.077296,8.91 L92.917296,8.91 C92.953296,8.676 92.971296,8.334 92.971296,8.082 Z M88.111296,5.508 C89.101296,5.508 89.893296,6.138 90.181296,7.164 L86.059296,7.164 C86.329296,6.156 87.121296,5.508 88.111296,5.508 Z" id="Shape"></path>
                <path d="M97.721208,12.852 C99.953208,12.852 101.717208,11.79 101.717208,9.774 C101.717208,7.632 99.773208,7.182 98.333208,6.876 C97.397208,6.678 96.695208,6.516 96.695208,5.994 C96.695208,5.526 97.271208,5.328 97.973208,5.328 C98.873208,5.328 99.629208,5.67 100.313208,6.138 L101.537208,4.446 C100.673208,3.816 99.503208,3.24 97.883208,3.24 C95.795208,3.24 94.067208,4.212 94.067208,6.192 C94.067208,8.352 95.993208,8.784 97.451208,9.108 C98.387208,9.324 99.089208,9.504 99.089208,10.026 C99.089208,10.512 98.495208,10.764 97.631208,10.764 C96.569208,10.764 95.705208,10.368 95.003208,9.774 L93.779208,11.466 C94.679208,12.204 95.975208,12.852 97.721208,12.852 Z" id="Path"></path>
                <polygon id="Path" points="7.114 17.976 7.114 26.264 0.982 17.976 0.058 17.976 0.058 27.636 0.912 27.636 0.912 19.348 7.044 27.636 7.982 27.636 7.982 17.976"></polygon>
                <path d="M17.290376,24.066 C17.290376,21.924 15.694376,20.328 13.580376,20.328 C11.452376,20.328 9.856376,21.924 9.856376,24.052 C9.856376,26.18 11.508376,27.804 13.720376,27.804 C15.120376,27.804 16.310376,27.174 16.996376,26.166 L16.422376,25.69 C15.904376,26.488 14.910376,27.048 13.748376,27.048 C12.110376,27.048 10.878376,25.956 10.710376,24.416 L17.262376,24.416 C17.276376,24.304 17.290376,24.178 17.290376,24.066 Z M13.566376,21.084 C15.092376,21.084 16.268376,22.162 16.436376,23.688 L10.710376,23.688 C10.878376,22.162 12.040376,21.084 13.566376,21.084 Z" id="Shape"></path>
                <polygon id="Path" points="28.530752 20.496 26.304752 26.684 24.050752 20.496 23.196752 20.496 20.942752 26.684 18.716752 20.496 17.806752 20.496 20.480752 27.636 21.348752 27.636 23.616752 21.448 25.870752 27.636 26.738752 27.636 29.412752 20.496"></polygon>
                <polygon id="Path" points="35.191504 26.824 41.253504 18.592 41.253504 17.976 34.071504 17.976 34.071504 18.788 40.077504 18.788 34.015504 27.02 34.015504 27.636 41.351504 27.636 41.351504 26.824"></polygon>
                <path d="M49.66588,24.066 C49.66588,21.924 48.06988,20.328 45.95588,20.328 C43.82788,20.328 42.23188,21.924 42.23188,24.052 C42.23188,26.18 43.88388,27.804 46.09588,27.804 C47.49588,27.804 48.68588,27.174 49.37188,26.166 L48.79788,25.69 C48.27988,26.488 47.28588,27.048 46.12388,27.048 C44.48588,27.048 43.25388,25.956 43.08588,24.416 L49.63788,24.416 C49.65188,24.304 49.66588,24.178 49.66588,24.066 Z M45.94188,21.084 C47.46788,21.084 48.64388,22.162 48.81188,23.688 L43.08588,23.688 C43.25388,22.162 44.41588,21.084 45.94188,21.084 Z" id="Shape"></path>
                <path d="M57.630256,20.496 L57.630256,22.148 C57.042256,21.042 55.922256,20.328 54.550256,20.328 C52.478256,20.328 50.924256,21.938 50.924256,24.066 C50.924256,26.194 52.478256,27.804 54.550256,27.804 C55.922256,27.804 57.042256,27.09 57.630256,25.984 L57.630256,27.636 L58.442256,27.636 L58.442256,20.496 L57.630256,20.496 Z M54.690256,27.02 C53.024256,27.02 51.764256,25.746 51.764256,24.066 C51.764256,22.386 53.024256,21.112 54.690256,21.112 C56.370256,21.112 57.630256,22.386 57.630256,24.066 C57.630256,25.746 56.370256,27.02 54.690256,27.02 Z" id="Shape"></path>
                <polygon id="Path" points="60.652632 27.636 61.464632 27.636 61.464632 17.556 60.652632 17.556"></polygon>
                <path d="M69.947008,20.496 L69.947008,22.148 C69.359008,21.042 68.239008,20.328 66.867008,20.328 C64.795008,20.328 63.241008,21.938 63.241008,24.066 C63.241008,26.194 64.795008,27.804 66.867008,27.804 C68.239008,27.804 69.359008,27.09 69.947008,25.984 L69.947008,27.636 L70.759008,27.636 L70.759008,20.496 L69.947008,20.496 Z M67.007008,27.02 C65.341008,27.02 64.081008,25.746 64.081008,24.066 C64.081008,22.386 65.341008,21.112 67.007008,21.112 C68.687008,21.112 69.947008,22.386 69.947008,24.066 C69.947008,25.746 68.687008,27.02 67.007008,27.02 Z" id="Shape"></path>
                <path d="M76.553384,20.328 C75.293384,20.328 74.313384,20.874 73.781384,21.84 L73.781384,20.496 L72.969384,20.496 L72.969384,27.636 L73.781384,27.636 L73.781384,23.576 C73.781384,22.092 74.803384,21.112 76.315384,21.112 C77.771384,21.112 78.737384,22.078 78.737384,23.548 L78.737384,27.636 L79.549384,27.636 L79.549384,23.31 C79.549384,21.504 78.345384,20.328 76.553384,20.328 Z" id="Path"></path>
                <path d="M87.93376,17.556 L87.93376,22.148 C87.34576,21.042 86.22576,20.328 84.85376,20.328 C82.78176,20.328 81.22776,21.938 81.22776,24.066 C81.22776,26.194 82.78176,27.804 84.85376,27.804 C86.22576,27.804 87.34576,27.09 87.93376,25.984 L87.93376,27.636 L88.74576,27.636 L88.74576,17.556 L87.93376,17.556 Z M84.99376,27.02 C83.32776,27.02 82.06776,25.746 82.06776,24.066 C82.06776,22.386 83.32776,21.112 84.99376,21.112 C86.67376,21.112 87.93376,22.386 87.93376,24.066 C87.93376,25.746 86.67376,27.02 84.99376,27.02 Z" id="Shape"></path>
            </g>
            <g id="best-seller-copy">
                <polygon id="Path" fill="#FFE370" points="6.0171768 16.8968788 6.0171768 33 14.0000269 27.8461186 15.5299961 22.4587393 14.0000269 16.8968788"></polygon>
                <polygon id="Path" fill="#FFB54C" points="14.0000269 16.8968788 14.0000269 27.8461186 21.982877 33 21.982877 16.8968788"></polygon>
                <path d="M10.2631753,0.050431127 C9.08525464,0.351484782 8.46184019,1.93435901 7.4305077,2.50495543 C6.38431884,3.08378851 4.64138195,2.81454801 3.7923561,3.62642563 C2.94333026,4.43830326 3.22489012,6.10497982 2.61957199,7.10539381 C2.0228674,8.09160146 0.367567294,8.68766351 0.05273865,9.81404549 C-0.251579902,10.9026446 0.861778726,12.2070593 0.861778726,13.3873952 C0.861778726,14.5677311 -0.251579902,15.8720702 0.0526596268,16.9607449 C0.367488271,18.0871269 2.02278837,18.6832645 2.61949297,19.6694721 C3.22481109,20.6698861 2.94325124,22.3365627 3.79227708,23.1484403 C4.64130292,23.9603179 6.38423982,23.6910774 7.43042868,24.2699105 C8.46176117,24.8405069 9.08509659,26.4233812 10.2630172,26.7244348 C11.4014262,27.0154382 12.7655256,25.9507934 13.9998689,25.9507934 L14.7940526,13.3875463 L14.0000269,0.824072523 C12.7656837,0.824072523 11.4016633,-0.240572293 10.2631753,0.050431127 L10.2631753,0.050431127 Z" id="Path" fill="#FF4949"></path>
                <path d="M27.9472361,9.81404549 C27.6324075,8.68766351 25.9771074,8.09152589 25.3804028,7.10531825 C24.7750847,6.10490426 25.0566445,4.4382277 24.2076187,3.62635007 C23.3585928,2.81447244 21.6156559,3.08371295 20.5694671,2.50487986 C19.5381346,1.93428344 18.9147992,0.351409216 17.7368785,0.0503555613 C16.5984695,-0.240572293 15.2343701,0.824072523 14.0000269,0.824072523 L14.0000269,25.9506423 C15.2343701,25.9506423 16.5983905,27.0152871 17.7368785,26.7243593 C18.9147992,26.4233056 19.5382136,24.8404314 20.5695461,24.269835 C21.615735,23.6910019 23.3586719,23.9602424 24.2076977,23.1483648 C25.0567235,22.3364871 24.7751637,20.6698106 25.3804818,19.6693966 C25.9771864,18.6831889 27.6324865,18.0871269 27.9473152,16.9607449 C28.2516337,15.8721458 27.1382751,14.5677311 27.1382751,13.3873952 C27.138117,12.2069838 28.2514757,10.9026446 27.9472361,9.81404549 Z" id="Path" fill="#E20A6C"></path>
                <polygon id="Path" fill="#FFEDE3" points="12.3788648 5.47718018 12.3788648 8.28761882 10.0935914 10.7537047 7.91839727 10.7670042 7.91839727 18.8965864 14.0000269 18.8965864 14.7183483 12.1868833 14.0000269 5.47718018"></polygon>
                <path d="M18.7140011,9.90064375 L17.2448007,9.90064375 L17.2448007,8.34965824 C17.2448007,6.76323243 15.899904,5.47718018 14.2408898,5.47718018 L14.0000269,5.47718018 L14.0000269,18.896662 L17.9583017,18.896662 C19.0843041,18.896662 20.04254,18.1124414 20.2163122,17.0486278 L20.9720115,12.4236306 C21.1886143,11.0980575 20.1169009,9.90064375 18.7140011,9.90064375 Z" id="Path" fill="#FFDDCE"></path>
            </g>
        </g>
    </g>
</svg>